<svg width="195" height="27" viewBox="0 0 195 27" fill="none" xmlns="http://www.w3.org/2000/svg">
<path d="M11.976 17.024H5.688L4.68 20H0.384L6.48 3.152H11.232L17.328 20H12.984L11.976 17.024ZM10.92 13.856L8.832 7.688L6.768 13.856H10.92ZM18.234 13.304C18.234 11.912 18.514 10.696 19.074 9.656C19.65 8.616 20.442 7.816 21.45 7.256C22.474 6.696 23.642 6.416 24.954 6.416C26.634 6.416 28.034 6.856 29.154 7.736C30.29 8.616 31.034 9.856 31.386 11.456H27.018C26.65 10.432 25.938 9.92 24.882 9.92C24.13 9.92 23.53 10.216 23.082 10.808C22.634 11.384 22.41 12.216 22.41 13.304C22.41 14.392 22.634 15.232 23.082 15.824C23.53 16.4 24.13 16.688 24.882 16.688C25.938 16.688 26.65 16.176 27.018 15.152H31.386C31.034 16.72 30.29 17.952 29.154 18.848C28.018 19.744 26.618 20.192 24.954 20.192C23.642 20.192 22.474 19.912 21.45 19.352C20.442 18.792 19.65 17.992 19.074 16.952C18.514 15.912 18.234 14.696 18.234 13.304ZM40.9119 16.52V20H38.8239C37.3359 20 36.1759 19.64 35.3439 18.92C34.5119 18.184 34.0959 16.992 34.0959 15.344V10.016H32.4639V6.608H34.0959V3.344H38.1999V6.608H40.8879V10.016H38.1999V15.392C38.1999 15.792 38.2959 16.08 38.4879 16.256C38.6799 16.432 38.9999 16.52 39.4479 16.52H40.9119ZM45.1286 5.216C44.4086 5.216 43.8166 5.008 43.3526 4.592C42.9046 4.16 42.6806 3.632 42.6806 3.008C42.6806 2.368 42.9046 1.84 43.3526 1.424C43.8166 0.991999 44.4086 0.775999 45.1286 0.775999C45.8326 0.775999 46.4086 0.991999 46.8566 1.424C47.3206 1.84 47.5526 2.368 47.5526 3.008C47.5526 3.632 47.3206 4.16 46.8566 4.592C46.4086 5.008 45.8326 5.216 45.1286 5.216ZM47.1686 6.608V20H43.0646V6.608H47.1686ZM56.0334 16.16L58.9374 6.608H63.3054L58.5534 20H53.4894L48.7374 6.608H53.1294L56.0334 16.16ZM66.9635 5.216C66.2435 5.216 65.6515 5.008 65.1875 4.592C64.7395 4.16 64.5155 3.632 64.5155 3.008C64.5155 2.368 64.7395 1.84 65.1875 1.424C65.6515 0.991999 66.2435 0.775999 66.9635 0.775999C67.6675 0.775999 68.2435 0.991999 68.6915 1.424C69.1555 1.84 69.3875 2.368 69.3875 3.008C69.3875 3.632 69.1555 4.16 68.6915 4.592C68.2435 5.008 67.6675 5.216 66.9635 5.216ZM69.0035 6.608V20H64.8995V6.608H69.0035ZM79.3082 16.52V20H77.2202C75.7322 20 74.5722 19.64 73.7402 18.92C72.9082 18.184 72.4922 16.992 72.4922 15.344V10.016H70.8602V6.608H72.4922V3.344H76.5962V6.608H79.2842V10.016H76.5962V15.392C76.5962 15.792 76.6922 16.08 76.8842 16.256C77.0762 16.432 77.3962 16.52 77.8442 16.52H79.3082ZM95.1409 6.608L86.7409 26.36H82.3249L85.3969 19.544L79.9489 6.608H84.5329L87.6289 14.984L90.7009 6.608H95.1409ZM114.284 8.576C114.284 9.552 114.06 10.448 113.612 11.264C113.164 12.064 112.476 12.712 111.548 13.208C110.62 13.704 109.468 13.952 108.092 13.952H105.548V20H101.444V3.152H108.092C109.436 3.152 110.572 3.384 111.5 3.848C112.428 4.312 113.124 4.952 113.588 5.768C114.052 6.584 114.284 7.52 114.284 8.576ZM107.78 10.688C108.564 10.688 109.148 10.504 109.532 10.136C109.916 9.768 110.108 9.248 110.108 8.576C110.108 7.904 109.916 7.384 109.532 7.016C109.148 6.648 108.564 6.464 107.78 6.464H105.548V10.688H107.78ZM120.391 2.24V20H116.287V2.24H120.391ZM122.416 13.28C122.416 11.904 122.672 10.696 123.184 9.656C123.712 8.616 124.424 7.816 125.32 7.256C126.216 6.696 127.216 6.416 128.32 6.416C129.264 6.416 130.088 6.608 130.792 6.992C131.512 7.376 132.064 7.88 132.448 8.504V6.608H136.552V20H132.448V18.104C132.048 18.728 131.488 19.232 130.768 19.616C130.064 20 129.24 20.192 128.296 20.192C127.208 20.192 126.216 19.912 125.32 19.352C124.424 18.776 123.712 17.968 123.184 16.928C122.672 15.872 122.416 14.656 122.416 13.28ZM132.448 13.304C132.448 12.28 132.16 11.472 131.584 10.88C131.024 10.288 130.336 9.992 129.52 9.992C128.704 9.992 128.008 10.288 127.432 10.88C126.872 11.456 126.592 12.256 126.592 13.28C126.592 14.304 126.872 15.12 127.432 15.728C128.008 16.32 128.704 16.616 129.52 16.616C130.336 16.616 131.024 16.32 131.584 15.728C132.16 15.136 132.448 14.328 132.448 13.304ZM147.548 6.464C149.116 6.464 150.364 6.976 151.292 8C152.236 9.008 152.708 10.4 152.708 12.176V20H148.628V12.728C148.628 11.832 148.396 11.136 147.932 10.64C147.468 10.144 146.844 9.896 146.06 9.896C145.276 9.896 144.652 10.144 144.188 10.64C143.724 11.136 143.492 11.832 143.492 12.728V20H139.388V6.608H143.492V8.384C143.908 7.792 144.468 7.328 145.172 6.992C145.876 6.64 146.668 6.464 147.548 6.464ZM163.587 6.464C165.155 6.464 166.403 6.976 167.331 8C168.275 9.008 168.747 10.4 168.747 12.176V20H164.667V12.728C164.667 11.832 164.435 11.136 163.971 10.64C163.507 10.144 162.883 9.896 162.099 9.896C161.315 9.896 160.691 10.144 160.227 10.64C159.763 11.136 159.531 11.832 159.531 12.728V20H155.427V6.608H159.531V8.384C159.947 7.792 160.507 7.328 161.211 6.992C161.915 6.64 162.707 6.464 163.587 6.464ZM184.089 13.088C184.089 13.472 184.065 13.872 184.017 14.288H174.729C174.793 15.12 175.057 15.76 175.521 16.208C176.001 16.64 176.585 16.856 177.273 16.856C178.297 16.856 179.009 16.424 179.409 15.56H183.777C183.553 16.44 183.145 17.232 182.553 17.936C181.977 18.64 181.249 19.192 180.369 19.592C179.489 19.992 178.505 20.192 177.417 20.192C176.105 20.192 174.937 19.912 173.913 19.352C172.889 18.792 172.089 17.992 171.513 16.952C170.937 15.912 170.649 14.696 170.649 13.304C170.649 11.912 170.929 10.696 171.489 9.656C172.065 8.616 172.865 7.816 173.889 7.256C174.913 6.696 176.089 6.416 177.417 6.416C178.713 6.416 179.865 6.688 180.873 7.232C181.881 7.776 182.665 8.552 183.225 9.56C183.801 10.568 184.089 11.744 184.089 13.088ZM179.889 12.008C179.889 11.304 179.649 10.744 179.169 10.328C178.689 9.912 178.089 9.704 177.369 9.704C176.681 9.704 176.097 9.904 175.617 10.304C175.153 10.704 174.865 11.272 174.753 12.008H179.889ZM190.225 8.84C190.705 8.104 191.305 7.528 192.025 7.112C192.745 6.68 193.545 6.464 194.425 6.464V10.808H193.297C192.273 10.808 191.505 11.032 190.993 11.48C190.481 11.912 190.225 12.68 190.225 13.784V20H186.121V6.608H190.225V8.84Z" fill="black"/>
</svg>
